PathFileType	4	(X/Y/Z)	27_2_55_p1_0-608.trc
DataRate	CameraRate	NumFrames	NumMarkers	Units	OrigDataRate	OrigDataStartFrame	OrigNumFrames
60.0	60.0	5	27	m	60.0	228	609
Frame#	Time	RHip			RKnee			RAnkle			RBigToe			RSmallToe			RHeel			LHip			LKnee			LAnkle			LBigToe			LSmallToe			LHeel			Neck			Head			Nose			RShoulder			RElbow			RWrist			RThumb			RIndex			RPinky			LShoulder			LElbow			LWrist			LThumb			LIndex			LPinky			
		X1	Y1	Z1	X2	Y2	Z2	X3	Y3	Z3	X4	Y4	Z4	X5	Y5	Z5	X6	Y6	Z6	X7	Y7	Z7	X8	Y8	Z8	X9	Y9	Z9	X10	Y10	Z10	X11	Y11	Z11	X12	Y12	Z12	X13	Y13	Z13	X14	Y14	Z14	X15	Y15	Z15	X16	Y16	Z16	X17	Y17	Z17	X18	Y18	Z18	X19	Y19	Z19	X20	Y20	Z20	X21	Y21	Z21	X22	Y22	Z22	X23	Y23	Z23	X24	Y24	Z24	X25	Y25	Z25	X26	Y26	Z26	X27	Y27	Z27	
228	3.8	0.12795296669347891	0.6245615197918576	1.0321943929330184	0.13491120822684888	0.6869357077546699	1.440341570995957	0.16007800585492002	0.8229774013310394	1.8563006471298724	0.13070499242794462	0.6090639299078056	1.8491056600617408	0.18176578933637053	0.6006356382461524	1.8279118857626577	0.15353157879100493	0.8960377682396637	1.9081243621612283	-0.06287994449629285	0.6535460271373165	1.0348420898688793	-0.040809802561711905	0.7413429852268579	1.4501840056281645	-0.02249379603818974	0.8003198233740538	1.8387603879100225	-0.03761778789831961	0.5635446846978538	1.8052483859622577	-0.07776225581959183	0.6377995126205219	1.8278792752852295	-0.0003385784154040515	0.8857567883036426	1.8976682507884903	0.03317232600402754	0.6035610313607199	0.5040473158405834	0.032506459739952864	0.5472368841130448	0.24939974505818813	0.035033539499391746	0.4967149359414478	0.3959624395257271	0.1568304714937767	0.5800754778041546	0.5658900621229368	0.16001433972878779	0.3205365473757364	0.699248402882903	0.030456042201367602	0.19890342495153127	0.6440774490807707	-0.021337367754864434	0.12513567665543895	0.623750420644423	-0.02434509852718351	0.14509278019365932	0.6209552056231319	-0.04467585711630847	0.12318453986828362	0.6300029587526669	-0.10444025985197933	0.6385678050365896	0.5520095276529482	-0.15244252501997232	0.4012143561884209	0.656024756844398	-0.004486083891946715	0.33758998819318214	0.5604149833100067	0.08051062889542404	0.3739939073056566	0.5181492430722036	0.07002479873787835	0.31975205711541976	0.509264162167385	0.05906906765302975	0.2715870845870225	0.5306212261596305
229	3.816666666666667	0.12764792469420963	0.624378407373695	1.036184610395115	0.13487362080825002	0.6870202380105531	1.440604134354763	0.16002051134934853	0.8230448040493616	1.85650949422272	0.12572467788346364	0.6081024609218124	1.8489406881459234	0.17701793866853172	0.6005889870888884	1.8281615096438382	0.15486220408971269	0.8986780782065478	1.9147241837370301	-0.062253096287055054	0.6548666396418475	1.0471158796242113	-0.040597372077942014	0.7402646762698728	1.4539358262921473	-0.022523997445448068	0.8002146450022687	1.8387682548520696	-0.04066960373991619	0.5777276444482891	1.812970265259338	-0.07798123396342074	0.637838507161677	1.8281373260329599	-0.00013328320345108228	0.885532734939366	1.8973120126392649	0.03380366900657177	0.6058958089182007	0.5070644094825358	0.03191819778192082	0.5463352619633015	0.24226752721511816	0.03490335552356738	0.4969689384468459	0.3991583537869722	0.15654823026041456	0.5807660843387884	0.5622783481540267	0.15528421008606422	0.31481784447140027	0.6909206400010462	0.018220917517872595	0.21946695829673285	0.6334526134641232	-0.04944035006626425	0.14286858599076888	0.6100109858231795	-0.06012507334330222	0.1251954043470033	0.5869364592931274	-0.07765977549097801	0.19984643705723731	0.6318428914963572	-0.10351601234681121	0.6398599971274984	0.5560464916783083	-0.1529635794395675	0.3893953618149319	0.6549527071959951	-0.006877994332004038	0.32726259571190164	0.5545700790648582	0.1021750409227314	0.3586811002408175	0.5102756811668739	0.09306796999718457	0.3301897063781996	0.49974467497726677	0.06255882596013039	0.27437857507224356	0.5232085912462543
230	3.8333333333333335	0.12358997131649309	0.6231528671687458	1.031885845205295	0.13488456300027726	0.6869274453175263	1.4404334272674055	0.16005565190092272	0.8228617502098294	1.8563405428971782	0.12605604009285915	0.5962278797402024	1.8422800427221893	0.18170244227203722	0.6005454144907715	1.8278626133832498	0.1549430232493132	0.8986138936572087	1.9146765985431753	-0.06272707202549561	0.6533246162524411	1.0389043990998643	-0.044159053605380666	0.7551966166640086	1.4595970317040032	-0.022439870789681664	0.8001797009840402	1.8386551515238951	-0.04075841395416802	0.5775875391686756	1.8127687300138398	-0.07793255092384675	0.6380166572239664	1.8280324476184922	0.001531873889869857	0.8891017758916381	1.902696359840143	0.037400144995129676	0.5923865002126133	0.505668188800974	0.031955526303783406	0.5465757483243352	0.24215787880073128	0.03487231907438276	0.49718924587349544	0.39918714864237814	0.1590824648476464	0.5671895649172641	0.5609412093827871	0.15188279376789313	0.30179362093525175	0.6752456820616158	0.0206615502139932	0.21240568810196844	0.6308525402381127	-0.04810800776709373	0.18087347130028747	0.6061467770367921	-0.07238104312545324	0.15315510511107555	0.5830909202496264	-0.07608895077599659	0.17199102541284642	0.6118620291475289	-0.10380365306006342	0.6390386372505552	0.5521692087049378	-0.15911831364371162	0.40235680832537407	0.6546395079122728	-0.023936114979650768	0.28895138063253967	0.5574847915282999	0.0980710278138834	0.2979561681151699	0.5190853792119484	0.08800161030664962	0.289770362033837	0.503001905741314	0.11245213448839898	0.35181168297099275	0.5069501189094567
231	3.85	0.1281547655570686	0.6243194747723334	1.0320960993423705	0.1348676194261207	0.686838228121856	1.4404702755352252	0.15999054879660443	0.8228007825655265	1.8563520205035253	0.1280618716407814	0.5803895925876399	1.8342387399776696	0.17674658275060015	0.5999344582198515	1.8279964094556647	0.15333300949191125	0.8957504169606814	1.9082397281430945	-0.061547375751607646	0.6540594250355087	1.0475601406563122	-0.04056070384045948	0.7403858872297865	1.453980120320823	-0.02250196079848009	0.8000994421247467	1.8386287139160182	-0.04078080411014591	0.5775434424604852	1.8128318729424948	-0.07792840410816505	0.6380829478994584	1.8281394727157418	-0.00025656915737487317	0.885806298178326	1.8976593786046068	0.03410260473776788	0.605627514190034	0.5069590880314684	0.031934900168022806	0.5469178353862668	0.242210325764182	0.03478607398541562	0.4969329552351698	0.3991721638030173	0.15659779842636018	0.5805481377939182	0.5623166550638832	0.14549288418575274	0.32556035763014296	0.6682343840865859	-0.008726185019876908	0.23284907712207012	0.618419999332032	-0.06632474528325108	0.1669328019876164	0.6009657296146952	-0.08067532170296207	0.14194978416112722	0.5690896516896915	-0.08623199101786487	0.13328277903799493	0.5787501416695271	-0.1035040421537522	0.6405119387989101	0.5522615871325085	-0.14744519017168528	0.4268173520452164	0.6496376662276008	-0.022550797028016708	0.27795805614243413	0.5514605846483029	0.09246545634925682	0.26504610359744263	0.5125757755563359	0.13277768466694637	0.3814388582752922	0.4906080692752216	0.1134326145599229	0.3708675682335285	0.5010024128972983
232	3.8666666666666667	0.12743456022323957	0.6227071735230149	1.027883115646799	0.13494640899493748	0.6869940185670088	1.4404295481821887	0.16001403521493565	0.8228188110168613	1.856363343426805	0.1282240710899094	0.580845562270199	1.8344066284746812	0.17621075167419983	0.6012213104114514	1.8323458838938664	0.15480311510180944	0.898250940196753	1.9146299836708915	-0.062420487248722165	0.6524006863895737	1.0428409402402778	-0.0405288049009997	0.7403973576989106	1.4537603459860584	-0.02240197447298865	0.800269034099214	1.8386129282156083	-0.04070744412551366	0.5778917224683592	1.813079585171894	-0.07795782081259142	0.6380633998740325	1.8282123807963002	0.0023444619413177836	0.868956077033179	1.8940564150718004	0.02982884080538786	0.6056453229974402	0.5071288588080206	0.03185696828895914	0.5468918358403141	0.24208567134942396	0.03477307384018307	0.4968878247868316	0.3991317527224856	0.15628589663226541	0.5800580872395484	0.5622028398562968	0.12883921382448632	0.30037053500977506	0.6571454353908559	-0.03740607524623929	0.25295444393779803	0.5975434361733589	-0.10465734716511353	0.09927199917456431	0.5590607565200426	-0.0851689658043279	0.13433854300039552	0.5520769423030388	-0.09432136086686961	0.14173718335427524	0.5736547306722481	-0.10768843704421628	0.6385323404810554	0.5560818246873497	-0.1550522007765921	0.40120537698053327	0.6340939878026831	-0.03088405003885771	0.275746655930771	0.5649371007352787	0.08321800319303328	0.25237659051024414	0.5501000163236892	0.06757333966632631	0.248838952933276	0.5151225046004005	0.06671409935671319	0.31853889915633243	0.5133320177380124
